<svg width="100" height="100" viewBox="0 0 100 100" fill="none" xmlns="http://www.w3.org/2000/svg">
  <defs>
    <linearGradient id="purpleGradient" x1="0%" y1="0%" x2="100%" y2="100%">
      <stop offset="0%" style="stop-color:#7C3AED" />
      <stop offset="100%" style="stop-color:#4F46E5" />
    </linearGradient>
  </defs>
  
  <circle cx="50" cy="50" r="45" fill="url(#purpleGradient)"/>
  
  <path d="M68 32C68 32 60 31 52 39C44 47 38 60 38 60L33 65C32 66 32 68 33 69L36 72C37 73 39 73 40 72L45 67C45 67 58 61 66 53C74 45 73 37 73 37L68 32Z" fill="white"/>
  
  <path d="M41 53L35 55L37 61L41 53Z" fill="white" fill-opacity="0.8"/>
  <path d="M52 64L50 70L56 68L52 64Z" fill="white" fill-opacity="0.8"/>
  
  <circle cx="30" cy="45" r="2" fill="white" fill-opacity="0.6"/>
  <circle cx="42" cy="28" r="1.5" fill="white" fill-opacity="0.4"/>
  <circle cx="75" cy="65" r="2.5" fill="white" fill-opacity="0.5"/>
</svg>
